<svg width="105" height="85" viewBox="0 0 105 85" fill="none" xmlns="http://www.w3.org/2000/svg">
<path d="M104.794 10.1247C100.863 11.8486 96.6989 12.9865 92.435 13.5018C96.9242 10.8143 100.286 6.59968 101.898 1.63627C97.7375 4.05469 93.1262 5.81513 88.2175 6.79557C84.9789 3.34629 80.6875 1.05856 76.0097 0.287625C71.3318 -0.483307 66.5293 0.305704 62.3478 2.53214C58.1664 4.75857 54.84 8.29783 52.8852 12.6003C50.9305 16.9028 50.4567 21.7278 51.5375 26.326C33.6437 25.485 17.7931 16.9224 7.175 3.98933C5.24472 7.25666 4.2379 10.9833 4.26125 14.7742C4.26125 22.2256 8.0675 28.7749 13.8337 32.6226C10.4163 32.5142 7.07425 31.5939 4.08625 29.9384V30.1998C4.08431 35.1517 5.80242 39.9517 8.94909 43.7855C12.0958 47.6193 16.4772 50.2508 21.35 51.2336C18.1926 52.0762 14.8856 52.2028 11.6725 51.6039C13.0555 55.8656 15.7398 59.591 19.3507 62.2603C22.9616 64.9295 27.319 66.4094 31.815 66.4936C24.2004 72.4457 14.7983 75.6762 5.11875 75.6662C3.4125 75.6662 1.71063 75.566 0 75.3742C9.86873 81.6679 21.3435 85.0087 33.0619 85C72.6688 85 94.3031 52.336 94.3031 24.0601C94.3031 23.145 94.3031 22.2299 94.2375 21.3148C98.4637 18.2858 102.109 14.525 105 10.2119L104.794 10.1247Z" fill="#1DA1F2"/>
</svg>
