<svg width="83" height="85" viewBox="0 0 83 85" fill="none" xmlns="http://www.w3.org/2000/svg">
<path d="M82.9604 43.2952C82.9604 39.8128 82.678 37.2715 82.0669 34.6362H42.3268V50.3541H65.6533C65.1832 54.2602 62.6436 60.1427 56.9999 64.0955L56.9208 64.6217L69.4859 74.362L70.3564 74.449C78.3513 67.0605 82.9604 56.1895 82.9604 43.2952Z" fill="#4285F4"/>
<path d="M42.3267 84.708C53.7548 84.708 63.3488 80.943 70.3564 74.449L56.9999 64.0955C53.4257 66.5897 48.6286 68.3309 42.3267 68.3309C31.1337 68.3309 21.6338 60.9427 18.2473 50.7307L17.751 50.7729L4.6856 60.8908L4.51474 61.3661C11.4751 75.2016 25.7721 84.708 42.3267 84.708Z" fill="#34A853"/>
<path d="M18.2474 50.7307C17.3538 48.0954 16.8367 45.2716 16.8367 42.354C16.8367 39.4361 17.3538 36.6126 18.2003 33.9773L18.1767 33.416L4.94758 23.1356L4.51475 23.3416C1.64606 29.083 0 35.5303 0 42.354C0 49.1777 1.64606 55.6247 4.51475 61.3661L18.2474 50.7307Z" fill="#FBBC05"/>
<path d="M42.3268 16.3768C50.2747 16.3768 55.6359 19.8121 58.693 22.683L70.6385 11.012C63.3021 4.18836 53.7548 0 42.3268 0C25.7721 0 11.4751 9.50605 4.51474 23.3416L18.2003 33.9773C21.6338 23.7653 31.1337 16.3768 42.3268 16.3768Z" fill="#EB4335"/>
</svg>
